<svg xmlns="http://www.w3.org/2000/svg" width="534.414" height="427.306" viewBox="0 0 141.397 113.058" xmlns:v="https://vecta.io/nano"><path d="M51.778 37.634l-25.562.308c-2.706.583-4.72 2.025-5.96 4.266l-1.059 1.915-.098 28.714c-.109 31.7-.153 30.977 2.092 33.684.624.753 1.94 1.743 2.925 2.201l1.791.833 45.024-.004 46.444-.649c1.813-.823 3.628-2.636 4.452-4.447.608-1.338.645-3.095.645-30.699 0-27.781-.034-29.353-.655-30.691-.868-1.869-2.671-3.643-4.626-4.553-1.582-.736-1.782-.739-45.376-.849l-20.035-.028zm43.419 21.361c2.714-.036 5.423.989 7.444 3.051 4.912 5.013 3.657 13.464-2.464 16.591-6.373 3.256-13.857-.348-15.141-7.291-.67-3.621.623-7.301 3.431-9.764 1.936-1.698 4.336-2.555 6.731-2.587zm-49.276.07c1.595.011 3.183.329 4.435.952 3.706 1.845 5.866 5.359 5.843 9.505-.024 4.207-2.319 7.79-6.045 9.437-2.076.917-5.779 1.153-7.579.483-9-3.352-9.701-15.424-1.131-19.483 1.28-.606 2.883-.904 4.478-.893zm24.886 28.632c8.966-.012 17.968.094 18.987.331 3.247.752 4.538 2.872 4.735 7.774.075 1.858-.043 4.015-.265 4.837-.494 1.832-1.918 3.572-3.444 4.209-1.666.695-38.612.682-40.214-.015-2.689-1.17-3.949-4.52-3.568-9.484.333-4.338 1.736-6.379 4.998-7.269.875-.239 9.805-.37 18.77-.382z" fill="#52a5ab" stroke="#52a5ab" stroke-width="1.059"/><path d="M52.844 100.008c-.777-.454-1.169-3.746-.667-5.609l.388-1.441h18.163 18.163l.375.97c.596 1.544.232 5.368-.567 5.952-.545.398-3.807.485-17.972.476-10.319-.006-17.539-.147-17.883-.347zM8.603 84.18c-1.74-.79-3.187-2.444-3.674-4.199-.476-1.712-.471-11.51.006-13.228.46-1.658 2.247-3.734 3.754-4.364.627-.262 2.098-.477 3.269-.477h2.128v11.465 11.465l-2.028-.008c-1.2-.005-2.611-.272-3.454-.655zM127.68 73.378V61.913h2.042c3.049 0 4.927 1.068 6.16 3.503.938 1.851.97 2.103.97 7.544 0 3.424-.169 6.194-.433 7.072-.856 2.856-3.816 4.812-7.281 4.812h-1.458zM68.413 15.655c-2.17-.865-3.528-2.983-3.528-5.501 0-3.423 2.352-5.728 5.857-5.739 6.003-.019 7.834 8.287 2.41 10.936-1.543.753-3.325.868-4.739.304z" fill="#f08527"/><path d="M122.556 73.731l.096-13.997v28.222c-.053 7.698-.096 1.297-.096-14.226zM47.012 96.838c0-1.455.062-2.051.138-1.323a15.36 15.36 0 0 1 0 2.646c-.076.728-.138.132-.138-1.323zm4.848 1.205c.017-.411.101-.495.213-.213.102.255.089.559-.028.676s-.201-.091-.185-.463zm10.115-5.35h17.11c4.705.056.855.101-8.555.101s-13.26-.046-8.555-.101zm-.176-4.939h18.168c4.996.055.908.1-9.084.1s-14.08-.045-9.084-.1zm-17.793-8.091c.255-.102.559-.089.676.028s-.091.201-.463.185c-.411-.017-.495-.101-.213-.213zm-44.003-.67c.017-.411.101-.495.213-.213.102.255.089.559-.028.676s-.201-.091-.185-.463zm88.122-1.823c-.439-.56-.426-.572.133-.133.34.266.617.544.617.617 0 .29-.29.103-.751-.484zm14.156-.265c.456-.485.908-.882 1.005-.882s-.196.397-.652.882-.908.882-1.005.882.196-.397.652-.882zm-49.213-.176c.351-.388.718-.706.815-.706s-.111.317-.462.706-.718.706-.815.706.111-.317.462-.706zm-17.714-7.232c.003-.97.071-1.325.152-.789s.079 1.33-.005 1.764-.15-.005-.147-.975zm20.782 0c.007-.582.086-.778.176-.434s.084.819-.013 1.058-.17-.042-.163-.624zm28.588-.176c0-.679.073-.957.161-.617a2.9 2.9 0 0 1 0 1.235c-.089.34-.161.062-.161-.617zm20.801.176c.007-.582.086-.778.176-.434s.084.819-.013 1.058-.17-.042-.163-.624zm14.703-28.663c-.439-.56-.426-.572.133-.133.588.461.775.751.484.751-.073 0-.351-.278-.617-.617zm-6.018-3.151c.255-.102.559-.089.676.028s-.091.201-.463.185c-.411-.017-.495-.101-.213-.213zM64.561 10.201c.017-.411.101-.495.213-.213.102.255.089.559-.028.676s-.201-.091-.185-.463zm5.903-6.032c.255-.102.559-.089.676.028s-.091.201-.463.185c-.411-.017-.495-.101-.213-.213z" fill="#377384"/><path d="M20.967 112.709c.207-.334-.315-.512-1.061-.361-.194.039-.235-.047-.09-.191.28-.28-1.139-1.437-1.585-1.293-.146.047-.229-.034-.186-.179.149-.501-1.215-2.198-1.583-1.971-.203.125-.27.068-.149-.127.217-.351-.954-3.026-1.212-2.768-.238.238-.326-1.272-.526-9.068l-.197-7.673-1.645-.021c-.905-.012-2.439-.181-3.409-.376l-2.524-.42c-.418-.036-.701-.16-.628-.278.153-.248-1.646-1.179-2.077-1.075-.16.039-.203-.071-.097-.244.216-.349-.977-1.573-1.258-1.291-.097.097-.187-.021-.2-.264-.035-.681-1.391-3.084-1.613-2.862-.109.109-.104-.16.011-.598S1 80.941.824 81.05c-.188.116-.32-3.05-.32-7.672l.32-7.672c.177.109.227-.159.112-.598s-.119-.707-.011-.598c.219.219 1.577-2.176 1.613-2.846.013-.234.132-.358.266-.275.371.229 1.8-1.43 1.495-1.736-.147-.147-.109-.236.085-.197.788.159 1.262-.035 1.025-.42-.148-.24-.098-.312.124-.175.469.29 1.554-.098 1.323-.473-.094-.152.026-.269.267-.26 1.179.042 2.05-.122 1.902-.36-.09-.146 1.051-.265 2.537-.265h2.701v-6.758l.312-6.564c.172.106.24-.297.152-.897-.096-.656-.023-1.005.185-.877s.261-.107.136-.583c-.114-.438-.119-.707-.011-.598.219.219 1.577-2.174 1.613-2.842.013-.232.116-.396.229-.365.353.096 2.77-2.529 2.54-2.759-.12-.12-.059-.186.135-.146.788.159 1.262-.035 1.025-.42-.148-.24-.098-.312.124-.175.493.305 1.549-.108 1.301-.509-.106-.171.08-.207.413-.079.361.139.518.091.389-.118-.119-.193.053-.35.383-.35 1.617.002 2.566-.151 2.418-.39-.09-.146 9.426-.222 21.146-.171l21.309.094-.001-6.62-.001-6.62-1.586-.652c-.872-.359-2.102-1.146-2.733-1.749s-1.265-1.063-1.411-1.023-.246-.046-.223-.192c.106-.673-.071-1.17-.355-.995-.172.106-.306-.003-.297-.244.039-1.087-.12-1.698-.397-1.527-.166.103-.222-.229-.125-.737s.034-.836-.139-.729-.316-.727-.316-1.854.119-1.976.265-1.886c.238.147.402-.724.36-1.903-.009-.24.152-.333.357-.207.235.145.287.006.141-.375-.157-.408-.099-.523.176-.353.282.175.33.047.154-.412-.14-.365-.142-.551-.004-.413.272.272 1.423-1.16 1.282-1.596-.047-.146.034-.226.179-.179.436.141 1.868-1.01 1.596-1.282-.138-.138.047-.137.413.003.459.176.586.129.412-.154-.17-.275-.055-.333.353-.176.381.146.52.094.375-.141-.127-.205-.034-.366.207-.357 1.303.047 2.399-.128 2.256-.36-.09-.146.6-.265 1.533-.265s1.623.119 1.533.265.219.265.687.265 1.574.385 2.458.855 1.727.748 1.873.617.164-.06.04.156c-.278.487.939 1.649 1.343 1.283.161-.146.197-.097.08.109-.242.426.927 2.385 1.238 2.074.112-.112.194.006.182.262-.051 1.177.115 2.079.355 1.93.146-.09.265.917.265 2.239s-.142 2.314-.316 2.207-.236.221-.139.729c.111.579.042.84-.185.7s-.268.022-.107.441c.14.365.145.554.01.42s-.682.445-1.217 1.288-1.305 1.766-1.712 2.051-.622.649-.478.808.08.186-.142.058c-.422-.241-2.357.59-2.061.886.093.093-.187.157-.623.142l-.792-.028v6.526 6.526h21.574l21.216.221c-.326.202 1.212.577 3.126.763.418.041.67.22.559.398s.07.221.405.092c.408-.157.523-.099.353.176s-.055.333.353.176c.36-.138.518-.091.39.116-.194.314.272.501.973.391.146-.023.231.077.189.223-.099.345 2.641 3.085 2.986 2.986.146-.042.246.043.223.189-.111.7.077 1.167.391.973.207-.128.254.03.116.39-.157.408-.099.523.176.353s.333-.055.176.353c-.148.387-.095.521.148.371s.31.034.181.526-.064.678.176.529.304.041.176.529c-.111.425-.055.672.128.559s.277.427.211 1.268c-.087 1.1-.023 1.337.253.94.226-.324.37-.367.374-.109a.83.83 0 0 1-.353.642c-.197.122-.278.353-.179.513s.19 2.411.203 5.003c.033 6.651-.09 6.378 2.816 6.238 1.349-.065 2.306.022 2.196.2s.219.236.727.139.858-.07.777.061c-.154.25 2.27 1.266 2.726 1.143.146-.039.229.047.186.193-.116.392 2.127 2.509 2.385 2.25.122-.122.19-.063.15.131-.15.746.027 1.267.361 1.061.207-.128.254.03.116.39-.157.408-.099.523.176.353s.333-.055.176.353c-.148.387-.095.521.148.371s.31.034.181.526c-.109.419-.055.672.121.563.191-.118.221 3.171.074 8.147-.266 9.035-.308 9.607-.686 9.373-.259-.16-.85 1.233-.725 1.707.038.146-.049.227-.195.182-.345-.108-2.395 1.942-2.287 2.287.045.146-.037.234-.182.197-.414-.105-3.933 1.251-3.8 1.464.065.105-.995.137-2.358.072-1.719-.082-2.404-.001-2.24.265.13.211.084.383-.102.383-.376 0-1.155 1.958-.886 2.227.286.286.352 4.815.077 5.26-.142.23-.16.576-.04.77s.247 1.233.283 2.31c.045 1.355-.028 1.74-.238 1.252s-.277-.151-.218 1.113c.046 1-.035 1.745-.18 1.655s-.265.091-.265.403-.314 1.216-.697 2.009-.597 1.604-.475 1.801.055.256-.148.13c-.384-.237-.974.734-.824 1.355.047.194-.035.232-.182.085-.364-.364-1.943 1.161-1.666 1.608.121.196.066.261-.121.145-.422-.261-2.332.948-2.009 1.271.129.129-22.262.234-49.757.234-32.887 0-49.918-.119-49.776-.349zm38.362-2.73a1398.2 1398.2 0 0 0-21.343 0c-5.869.054-1.067.099 10.672.099l10.672-.099zm23.48.001c-2.269-.061-6.079-.061-8.467 0s-.532.111 4.125.112 6.61-.05 4.342-.111zm21.852-.001c-3.25-.058-8.568-.058-11.818 0s-.591.106 5.909.106 9.159-.048 5.909-.106zm9.349.009c-.631-.078-1.662-.078-2.293 0s-.115.142 1.147.142 1.777-.064 1.147-.142zm2.381-.559c0-.157.154-.19.342-.074.523.323 2.164-.666 3.538-2.133.679-.725.997-1.189.706-1.031s-.078-.142.474-.666c.577-.549.919-1.172.805-1.469-.109-.284-.041-.516.15-.516s.256-.424.137-.97c-.163-.747-.125-.848.164-.441.267.376.377-7.758.381-28.155l-.362-28.457c-.238.147-.286-.094-.138-.685s.084-.911-.183-.911c-.227 0-.317-.154-.2-.342.717-1.16-4.309-6.191-5.469-5.474-.19.117-.345.027-.345-.201 0-.241-.296-.337-.706-.23-.388.102-.617.041-.508-.135.118-.191-17.836-.32-44.45-.32l-44.647.32c0 .176-.342.23-.761.121-.571-.149-.688-.082-.471.269.21.34.129.407-.298.243-.323-.124-.587-.062-.587.137s-.158.265-.352.145c-.409-.253-3.455 2.572-3.604 3.342-.055.286-.304.74-.554 1.007s-.353.801-.227 1.199c.15.474.095.632-.164.471-.284-.176-.391 7.725-.391 29.06l.342 29.301c.188 0 .25.238.139.529s-.032.529.176.529.287.24.175.534c-.13.338.359 1.074 1.334 2.008.846.811 1.213 1.245.814.966s-.25-.075.331.454 1.124.894 1.208.811.392.087.685.38.759.446 1.035.34.43-.075.341.068 20.382.261 45.49.261l45.651-.285zm-64.354-4.522c.126-.204-1.847-.801-2.375-.719-.351.055-1.139-.997-1.234-1.646-.046-.316-.235-.626-.419-.687s-.247-.446-.14-.855.05-.655-.126-.547c-.184.114-.32-1.494-.32-3.792s.136-3.905.32-3.791c.176.109.231-.144.121-.563-.129-.493-.065-.678.181-.526s.296.016.148-.371c-.138-.36-.091-.518.116-.39.192.119.369.047.393-.158l.088-.781c.024-.224.357-.453.74-.509s.859-.323 1.058-.594.561-.425.803-.343.441.016.441-.145 8.639-.294 19.197-.294l19.044.153c-.188.188 2.039 1.217 2.443 1.128.16-.035.19.1.066.3s.022.459.325.575.462.353.354.527-.032.316.167.316.271.238.159.529-.067.529.099.529.302 1.969.302 4.376-.102 4.313-.227 4.236c-.215-.133-.82 1.546-.727 2.018.052.262-1.045 1.3-1.426 1.348-1.233.158-2.347.495-2.235.677.075.122-8.326.222-18.669.222s-18.745-.1-18.669-.222zm-2.321-1.146c0-.073-.278-.351-.617-.617-.56-.439-.572-.426-.133.133.461.588.751.775.751.484zm42.731-.484c.439-.56.426-.572-.133-.133-.588.461-.775.751-.484.751.073 0 .351-.278.617-.617zm-3.536-3.653c.649-.649.726-1.068.611-3.34-.074-1.473-.327-2.794-.583-3.05-.352-.352-4.176-.476-17.28-.558-9.255-.058-17.333-.013-17.951.1-.901.165-1.205.456-1.54 1.469-.589 1.785-.267 5.043.559 5.646.526.385 3.999.476 18.046.476 17.211 0 17.403-.008 18.137-.742zm5.376-2.962c.001-1.552.063-2.143.138-1.314s.073 2.1-.002 2.822-.137.044-.135-1.509zM45.13 79.518c.396-.281.152-.333-.97-.205-1.006.115-1.423.047-1.268-.204.148-.24-.043-.303-.53-.176-.493.129-.678.065-.526-.181s.016-.296-.371-.148c-.36.138-.518.091-.39-.116.119-.192.047-.349-.158-.349l-.553.002c-.099.001-.614-.444-1.147-.99s-.729-.666-.438-.267c.524.718.521.718-.251.066-.429-.363-.758-.76-.732-.882.101-.473-.9-2.131-1.181-1.957-.163.101-.203-.063-.087-.364s.049-.547-.147-.547-.268-.342-.159-.761.055-.672-.121-.563-.32-.94-.32-2.414c0-1.437.136-2.612.302-2.612s.211-.238.099-.529-.032-.529.176-.529.285-.246.169-.547-.065-.458.113-.348c.274.169.828-.854.886-1.633.01-.129.162-.367.338-.529.191-.175.203-.079.03.235-.16.291.168.053.728-.529s.983-1.177.94-1.323.04-.227.185-.181c.407.129 2.558-.839 2.558-1.152 0-.152.342-.187.761-.078s.672.055.563-.121.785-.32 2.028-.32c1.224 0 2.138.142 2.031.316s.221.236.729.139c.556-.106.838-.038.709.171-.118.191.004.275.272.185s.7.05.959.31.579.428.709.374c.254-.106 3.525 3.152 3.569 3.555.077.697.454 1.477.715 1.477.163 0 .206.342.097.761s-.055.672.121.562.32.869.32 2.237c0 1.339-.138 2.436-.306 2.436s-.223.319-.121.707c.117.449.046.621-.195.471s-.297-.019-.155.352c.129.335.053.587-.175.587-.22 0-.297.103-.171.23s-.046.456-.382.732c-.382.313-.413.406-.083.246.291-.141-.106.317-.882 1.017s-1.54 1.28-1.697 1.288-.185.177-.062.376.093.326-.067.283c-.492-.133-1.878.443-1.878.779 0 .175-.238.227-.529.115s-.529-.059-.529.117-.595.262-1.323.191c-1-.097-1.194-.038-.794.242.413.289.257.37-.706.37-.969 0-1.121-.081-.706-.375zm49.742.012c.696-.24.529-.288-.794-.227-.922.042-1.676-.011-1.676-.119 0-.175-2.029-1.015-2.727-1.128-.15-.024-.562-.414-.917-.865s-.816-.715-1.025-.587-.278.071-.155-.129-.153-.77-.614-1.267-.749-.994-.64-1.103.018-.198-.202-.198c-.229 0-.304-.252-.175-.587.142-.371.086-.501-.155-.352s-.313-.022-.195-.471c.102-.388.047-.706-.121-.707s-.306-1.097-.306-2.436c0-1.369.14-2.348.32-2.237s.231-.144.121-.563-.072-.683.083-.587c.277.171.89-1.483.759-2.052-.037-.16.096-.19.295-.067.314.194.503-.219.419-.918-.033-.276 1.712-1.929 1.911-1.811.423.252.862.035.643-.319-.149-.241-.097-.312.127-.173.208.129.591.021.851-.238s.692-.4.959-.31c.273.091.388.002.261-.203-.139-.225.046-.295.48-.181.388.102.706.047.707-.121s1.017-.306 2.26-.306c1.263 0 2.171.141 2.061.32s.144.231.563.121.683-.072.587.083c-.148.239.769.625 1.666.701.142.012.919.694 1.726 1.515s1.341 1.255 1.185.964c-.168-.313-.153-.409.037-.235.177.162.341.44.365.617l.088.697c.024.205.185.287.357.18s.306.003.297.244c-.04 1.105.122 1.697.415 1.516.176-.109.23.145.121.564s-.055.672.121.563.32.855.32 2.203-.141 2.315-.32 2.205-.231.146-.121.564.038.761-.159.761-.271.225-.166.5-.053.594-.352.709a.56.56 0 0 0-.335.753c.115.299.092.492-.052.427-.364-.164-2.861 2.478-2.594 2.745.119.119.058.172-.136.118-.536-.151-1.94.398-1.94.759 0 .175-.238.227-.529.115s-.529-.055-.529.126-.499.256-1.108.167c-.768-.113-1.032-.04-.861.237.167.27-.133.389-.92.365-1.112-.034-1.126-.049-.285-.339zm-6.526-17.264c.351-.388.559-.706.462-.706s-.464.317-.815.706-.559.706-.462.706.464-.317.815-.706zm-35.481-.265l-.855-.97.97.855c.907.799 1.132 1.085.855 1.085-.063 0-.5-.437-.97-.97zM14.085 73.378V61.913h-2.238c-3.165 0-5.019 1.03-6.312 3.506-.953 1.824-.975 2.002-.975 7.835 0 6.358.262 7.679 1.869 9.427 1.216 1.323 3.367 2.147 5.628 2.155l2.028.008zM132.082 84.45c1.876-.521 3.89-2.586 4.412-4.525.267-.993.374-3.707.298-7.631l-.117-6.09-1.058-1.492c-1.449-2.043-2.997-2.8-5.727-2.8h-2.21v11.465 11.465l1.499-.002c.825-.001 2.131-.177 2.902-.392zM68.676 23.548c-.065-1.698-.118-.309-.118 3.087s.053 4.785.118 3.087a98.25 98.25 0 0 0 0-6.174zm4.655-8.191c3.514-1.793 4.171-6.929 1.219-9.522-2.722-2.39-6.914-1.934-8.81.96-3.354 5.119 2.157 11.334 7.591 8.562zm56.208 73.828c.343-.089.819-.084 1.058.013s-.042.17-.624.163-.778-.086-.434-.176zm11.69-15.807c0-3.104.054-4.327.12-2.717s.065 4.15-.001 5.644-.12.177-.119-2.927zM.116 73.202c0-3.007.054-4.238.12-2.734a75.38 75.38 0 0 1 0 5.468c-.066 1.504-.12.273-.12-2.734z" fill="#0b3353"/></svg>