<?xml version="1.0" encoding="UTF-8" standalone="no"?>
<!-- Created with Inkscape (http://www.inkscape.org/) -->

<svg
   width="141.3967mm"
   height="113.05793mm"
   viewBox="0 0 141.3967 113.05793"
   version="1.1"
   id="svg237"
   xml:space="preserve"
   sodipodi:docname="Emoji_vectorized_Inkscape.svg"
   inkscape:version="1.2.2 (b0a8486541, 2022-12-01)"
   xmlns:inkscape="http://www.inkscape.org/namespaces/inkscape"
   xmlns:sodipodi="http://sodipodi.sourceforge.net/DTD/sodipodi-0.dtd"
   xmlns="http://www.w3.org/2000/svg"
   xmlns:svg="http://www.w3.org/2000/svg"><sodipodi:namedview
     id="namedview239"
     pagecolor="#ffffff"
     bordercolor="#000000"
     borderopacity="0.25"
     inkscape:showpageshadow="2"
     inkscape:pageopacity="0.0"
     inkscape:pagecheckerboard="0"
     inkscape:deskcolor="#d1d1d1"
     inkscape:document-units="mm"
     showgrid="false"
     inkscape:zoom="0.72693603"
     inkscape:cx="101.79713"
     inkscape:cy="235.2339"
     inkscape:window-width="1920"
     inkscape:window-height="1000"
     inkscape:window-x="0"
     inkscape:window-y="48"
     inkscape:window-maximized="1"
     inkscape:current-layer="layer1" /><defs
     id="defs234" /><g
     inkscape:label="Layer 1"
     inkscape:groupmode="layer"
     id="layer1"
     transform="translate(-25.018351,-27.445224)"><path
       id="path392"
       style="fill:#52a5ab;fill-opacity:1;stroke:#52a5ab;stroke-width:1.05885;stroke-dasharray:none;stroke-opacity:1"
       inkscape:label="inner blue mark"
       d="m 76.795933,65.078706 c -16.88703,0.003 -24.600911,0.100784 -25.562215,0.307989 -2.706366,0.583344 -4.720037,2.024758 -5.960053,4.265859 l -1.059377,1.914598 -0.0983,28.714318 c -0.108517,31.70037 -0.153221,30.97667 2.091869,33.684 0.624127,0.75264 1.940328,1.74326 2.925192,2.20141 l 1.790811,0.8325 45.023679,-0.004 c 42.845081,-0.004 45.092511,-0.0357 46.444131,-0.64906 1.81329,-0.8229 3.62794,-2.63575 4.45167,-4.44723 0.60828,-1.3377 0.64504,-3.09509 0.64504,-30.6992 0,-27.781095 -0.0335,-29.3526 -0.65539,-30.691447 -0.8681,-1.869023 -2.67082,-3.643253 -4.626,-4.55266 -1.58206,-0.735861 -1.78187,-0.739441 -45.376461,-0.849038 -7.757202,-0.0195 -14.405598,-0.02941 -20.034608,-0.02842 z m 43.419097,21.361382 c 2.71445,-0.03591 5.42277,0.988576 7.44359,3.050953 4.91209,5.0131 3.65706,13.463659 -2.4643,16.591109 -6.37252,3.25578 -13.85668,-0.34826 -15.14066,-7.291485 -0.66967,-3.621319 0.62329,-7.301299 3.43058,-9.763674 1.93584,-1.698005 4.33567,-2.555223 6.73079,-2.586903 z m -49.275693,0.07028 c 1.595178,0.01054 3.182934,0.328761 4.434605,0.951873 3.706374,1.845127 5.86645,5.358728 5.843147,9.504778 -0.02364,4.206811 -2.319185,7.790441 -6.045402,9.437081 -2.076055,0.91742 -5.778621,1.15327 -7.579125,0.48266 -9.000075,-3.35218 -9.701142,-15.424166 -1.131281,-19.483429 1.280177,-0.606378 2.882878,-0.903506 4.478056,-0.892963 z m 24.886137,28.631642 c 8.965596,-0.0123 17.967506,0.0945 18.987126,0.33073 3.24684,0.75227 4.53764,2.87155 4.73462,7.77362 0.0747,1.85758 -0.0433,4.01531 -0.26484,4.83687 -0.49377,1.83155 -1.91806,3.57229 -3.44351,4.20902 -1.66614,0.69549 -38.612462,0.6817 -40.213532,-0.015 -2.689069,-1.17012 -3.949394,-4.51994 -3.568168,-9.48359 0.333199,-4.33831 1.736371,-6.37924 4.997918,-7.26926 0.875211,-0.23883 9.804788,-0.37015 18.770386,-0.38241 z"
       sodipodi:nodetypes="csscsscccssssssccsssssssssssssscsscsssss" /><path
       style="fill:#f08527;stroke-width:0.352778"
       d="m 77.86214,127.45257 c -0.777278,-0.454 -1.168565,-3.74588 -0.66676,-5.60943 l 0.388024,-1.44101 h 18.163188 18.163188 l 0.37454,0.97013 c 0.59594,1.54363 0.2316,5.36769 -0.56705,5.95168 -0.54459,0.39821 -3.80672,0.48457 -17.972237,0.47579 -10.31874,-0.006 -17.53946,-0.14658 -17.882893,-0.34716 z M 33.620777,111.62513 c -1.739858,-0.79031 -3.186669,-2.44366 -3.674048,-4.19854 -0.475511,-1.71215 -0.471298,-11.510244 0.0057,-13.227855 0.460466,-1.65813 2.246521,-3.734442 3.754308,-4.364436 0.62739,-0.262138 2.098308,-0.476617 3.268707,-0.476617 h 2.127997 v 11.465278 11.46528 l -2.028472,-0.008 c -1.199557,-0.005 -2.611073,-0.27239 -3.454178,-0.65536 z M 152.69788,100.82296 V 89.357682 h 2.04192 c 3.04859,0 4.92693,1.068077 6.16016,3.50284 0.93777,1.851424 0.97014,2.103176 0.97014,7.543798 0,3.42383 -0.1694,6.19388 -0.4325,7.07202 -0.85558,2.85567 -3.81574,4.8119 -7.28134,4.8119 h -1.45838 z M 93.431389,43.100244 c -2.169908,-0.865261 -3.527958,-2.982689 -3.527958,-5.500684 0,-3.422997 2.351942,-5.727549 5.85686,-5.73885 6.003239,-0.01936 7.834049,8.287265 2.410234,10.935541 -1.542979,0.753387 -3.325411,0.867721 -4.739136,0.303993 z"
       id="path390" /><path
       style="fill:#377384;stroke-width:0.352778"
       d="m 147.57432,101.17574 c 3e-5,-15.522224 0.0434,-21.820711 0.0964,-13.99664 0.053,7.824071 0.053,20.52407 -5e-5,28.22222 -0.053,7.69815 -0.0964,1.29664 -0.0963,-14.22558 z m -75.543949,23.10694 c 0,-1.45521 0.06227,-2.05052 0.13838,-1.32292 0.07611,0.72761 0.07611,1.91823 0,2.64584 -0.07611,0.7276 -0.13838,0.13229 -0.13838,-1.32292 z m 4.848133,1.20533 c 0.01693,-0.41097 0.100521,-0.49456 0.213134,-0.21314 0.101907,0.25466 0.08938,0.55893 -0.02783,0.67616 -0.117228,0.11722 -0.200603,-0.0911 -0.185286,-0.46302 z m 10.11451,-5.35017 c 4.705174,-0.0556 12.40455,-0.0556 17.109726,0 4.70517,0.0556 0.85548,0.10104 -8.554864,0.10104 -9.410348,0 -13.260036,-0.0455 -8.554862,-0.10104 z m -0.176389,-4.93892 c 4.996216,-0.0552 13.171842,-0.0552 18.168055,0 4.99622,0.0552 0.90841,0.10037 -9.084026,0.10037 -9.992431,0 -14.080244,-0.0452 -9.084029,-0.10037 z m -17.79323,-8.09056 c 0.25466,-0.1019 0.55893,-0.0894 0.676158,0.0278 0.117225,0.11722 -0.09114,0.2006 -0.46302,0.18528 -0.410969,-0.0169 -0.49456,-0.10052 -0.213138,-0.21313 z m -44.003229,-0.67035 c 0.01693,-0.41097 0.10052,-0.49456 0.213136,-0.21314 0.101908,0.25466 0.08938,0.55893 -0.02785,0.67616 -0.117226,0.11722 -0.200604,-0.0911 -0.185286,-0.46302 z m 88.121604,-1.82269 c -0.43881,-0.55953 -0.42634,-0.572 0.13319,-0.13319 0.33955,0.26629 0.61736,0.5441 0.61736,0.61736 0,0.29035 -0.2897,0.10347 -0.75055,-0.48417 z m 14.15611,-0.26458 c 0.4557,-0.48507 0.90792,-0.88195 1.00493,-0.88195 0.097,0 -0.19645,0.39688 -0.65215,0.88195 -0.4557,0.48507 -0.90792,0.88194 -1.00494,0.88194 -0.097,0 0.19646,-0.39687 0.65216,-0.88194 z m -49.212505,-0.17639 c 0.351187,-0.38806 0.717896,-0.70556 0.814909,-0.70556 0.09701,0 -0.110945,0.3175 -0.462131,0.70556 -0.351187,0.38805 -0.717896,0.70555 -0.81491,0.70555 -0.09701,0 0.110945,-0.3175 0.462132,-0.70555 z M 60.370994,96.942404 c 0.0028,-0.970139 0.07116,-1.325142 0.152248,-0.788899 0.08109,0.536243 0.07892,1.329993 -0.0048,1.763889 -0.08374,0.433895 -0.150079,-0.0048 -0.147433,-0.97499 z m 20.781766,0 c 0.0072,-0.582083 0.08625,-0.777501 0.175698,-0.434259 0.08944,0.343242 0.08356,0.819492 -0.01309,1.058334 -0.09664,0.238841 -0.169817,-0.04199 -0.162628,-0.624075 z m 28.58807,-0.176389 c 0,-0.679097 0.0726,-0.956909 0.16134,-0.617361 0.0887,0.339549 0.0887,0.895174 0,1.234722 -0.0887,0.339549 -0.16134,0.06174 -0.16134,-0.617361 z m 20.80082,0.176389 c 0.007,-0.582083 0.0863,-0.777501 0.1757,-0.434259 0.0894,0.343242 0.0836,0.819492 -0.0131,1.058334 -0.0966,0.238841 -0.16981,-0.04199 -0.16262,-0.624075 z m 14.7029,-28.663193 c -0.43881,-0.559527 -0.42634,-0.572005 0.13319,-0.133195 0.58764,0.460858 0.77452,0.750556 0.48417,0.750556 -0.0733,0 -0.35107,-0.277813 -0.61736,-0.617361 z m -6.01837,-3.151403 c 0.25466,-0.101907 0.55893,-0.08938 0.67616,0.02783 0.11722,0.117228 -0.0911,0.200604 -0.46302,0.185286 -0.41097,-0.01693 -0.49456,-0.10052 -0.21314,-0.213134 z M 89.578505,37.646342 c 0.01693,-0.410966 0.100521,-0.494559 0.213134,-0.213137 0.101907,0.254662 0.08938,0.558932 -0.02783,0.676158 -0.117228,0.117224 -0.200603,-0.09114 -0.185286,-0.463021 z m 5.903225,-6.032423 c 0.25466,-0.101907 0.558931,-0.08937 0.676159,0.02785 0.117224,0.117225 -0.09114,0.200604 -0.463021,0.185286 C 95.2839,31.810131 95.200309,31.726536 95.48173,31.61392 Z"
       id="path388" /><path
       style="fill:#0b3353;stroke-width:0.352778"
       d="m 45.984866,140.154 c 0.206618,-0.33431 -0.314657,-0.51198 -1.060605,-0.36148 -0.194028,0.0392 -0.234725,-0.0469 -0.09044,-0.19116 0.279608,-0.27961 -1.139394,-1.43703 -1.585257,-1.29302 -0.14552,0.047 -0.229279,-0.0336 -0.186131,-0.17913 0.148554,-0.50101 -1.214505,-2.19847 -1.582659,-1.97094 -0.202783,0.12533 -0.269935,0.0681 -0.149228,-0.12724 0.216832,-0.35084 -0.954303,-3.0258 -1.21194,-2.76816 -0.238149,0.23815 -0.325761,-1.27238 -0.525979,-9.06838 l -0.197057,-7.67292 -1.645378,-0.021 c -0.904958,-0.0116 -2.439128,-0.18092 -3.409267,-0.37635 -0.970139,-0.19542 -2.105917,-0.3844 -2.523952,-0.41994 -0.418034,-0.0355 -0.700825,-0.16047 -0.628423,-0.27762 0.153147,-0.2478 -1.646488,-1.17871 -2.07732,-1.07455 -0.159943,0.0387 -0.203374,-0.0712 -0.09651,-0.24407 0.215585,-0.34882 -0.97687,-1.57272 -1.258208,-1.29138 -0.09744,0.0974 -0.187485,-0.0213 -0.200107,-0.26381 -0.03542,-0.68058 -1.390506,-3.08446 -1.613201,-2.86177 -0.108641,0.10864 -0.103903,-0.16049 0.01053,-0.59808 0.11476,-0.43885 0.06449,-0.70689 -0.112096,-0.59775 -0.188033,0.11621 -0.320154,-3.04999 -0.320154,-7.67226 0,-4.622275 0.132121,-7.788469 0.320154,-7.672261 0.17659,0.109139 0.226856,-0.158901 0.112096,-0.597746 -0.114432,-0.437589 -0.11917,-0.706727 -0.01053,-0.598086 0.219485,0.219485 1.577033,-2.175704 1.613201,-2.846249 0.01262,-0.234001 0.132164,-0.357957 0.26565,-0.275456 0.371035,0.229312 1.800473,-1.430454 1.495016,-1.73591 -0.147296,-0.147296 -0.10906,-0.235783 0.08497,-0.196635 0.787681,0.158916 1.262132,-0.0354 1.024646,-0.419665 -0.148339,-0.240015 -0.09752,-0.311986 0.123733,-0.175242 0.468821,0.289747 1.554345,-0.09835 1.322836,-0.472941 -0.09381,-0.15179 0.02616,-0.268898 0.266609,-0.260237 1.178562,0.04244 2.049543,-0.122407 1.901972,-0.359989 -0.09039,-0.14552 1.05118,-0.264583 2.536819,-0.264583 h 2.701163 v -6.757571 c 0,-3.826277 0.13533,-6.673811 0.311979,-6.564471 0.171588,0.106204 0.24,-0.297317 0.152027,-0.896715 -0.09631,-0.656191 -0.02287,-1.005096 0.184565,-0.876893 0.205791,0.127187 0.260738,-0.107442 0.136458,-0.58269 -0.114432,-0.437589 -0.119171,-0.706726 -0.01053,-0.598085 0.218638,0.218638 1.576826,-2.174243 1.613201,-2.842168 0.01262,-0.231758 0.115553,-0.396177 0.228736,-0.365379 0.352824,0.09601 2.769714,-2.528951 2.54,-2.758666 -0.11965,-0.119651 -0.0588,-0.185519 0.135232,-0.146371 0.787682,0.158916 1.262133,-0.0354 1.024646,-0.419664 -0.148338,-0.240017 -0.09752,-0.311988 0.123734,-0.175244 0.493474,0.304985 1.548577,-0.107682 1.300716,-0.508729 -0.105977,-0.171474 0.07973,-0.207237 0.412676,-0.07947 0.361387,0.138678 0.518017,0.09098 0.38864,-0.118361 -0.119196,-0.192863 0.0532,-0.350289 0.383101,-0.349835 1.617332,0.0022 2.565897,-0.150581 2.418135,-0.389545 -0.08998,-0.145521 9.42565,-0.222465 21.145849,-0.170987 l 21.309451,0.0936 -0.0013,-6.619985 -0.0013,-6.619986 -1.586357,-0.652379 c -0.872498,-0.358809 -2.102214,-1.145746 -2.732706,-1.748748 -0.630491,-0.603002 -1.26541,-1.063494 -1.410931,-1.023315 -0.145521,0.04018 -0.245784,-0.04601 -0.222807,-0.19153 0.106323,-0.673378 -0.07084,-1.170203 -0.354725,-0.994755 -0.172121,0.106377 -0.305862,-0.0033 -0.297202,-0.243763 0.03915,-1.086958 -0.119909,-1.698394 -0.39722,-1.527005 -0.166,0.102593 -0.22236,-0.229132 -0.12524,-0.737167 0.09712,-0.508035 0.0345,-0.835891 -0.139157,-0.728567 -0.173655,0.107323 -0.315732,-0.727049 -0.315732,-1.854159 0,-1.127111 0.119062,-1.975708 0.264583,-1.885771 0.237592,0.146839 0.402424,-0.72443 0.359989,-1.902793 -0.0087,-0.240447 0.152057,-0.333468 0.357152,-0.206712 0.234664,0.145028 0.286783,0.0061 0.140599,-0.374897 -0.156548,-0.407958 -0.09903,-0.522996 0.176389,-0.352778 0.282494,0.17459 0.329953,0.0474 0.153706,-0.411897 -0.140244,-0.365464 -0.141771,-0.551266 -0.0035,-0.412893 0.272097,0.272097 1.422971,-1.160367 1.28227,-1.596009 -0.047,-0.145521 0.03362,-0.226129 0.17913,-0.179129 0.435641,0.140702 1.868106,-1.010172 1.596009,-1.282269 -0.138374,-0.138373 0.04743,-0.136844 0.412894,0.0034 0.459299,0.17625 0.586486,0.128789 0.411897,-0.153703 -0.170219,-0.275418 -0.05518,-0.332937 0.352777,-0.176389 0.380948,0.146184 0.519924,0.09406 0.374897,-0.140599 -0.126629,-0.205093 -0.03361,-0.365812 0.206838,-0.357153 1.303478,0.04694 2.399009,-0.127903 2.255573,-0.359988 -0.08994,-0.145521 0.599909,-0.264583 1.532992,-0.264583 0.933083,0 1.62293,0.119062 1.532993,0.264583 -0.08994,0.145521 0.219078,0.264583 0.686699,0.264583 0.467625,0 1.573883,0.384775 2.458365,0.855055 0.88447,0.470279 1.72732,0.748092 1.87299,0.617361 0.14567,-0.130732 0.16377,-0.06047 0.0402,0.156131 -0.27765,0.486785 0.93942,1.648955 1.34323,1.28264 0.16088,-0.145945 0.19673,-0.0967 0.0797,0.109432 -0.24211,0.426281 0.92661,2.384919 1.23755,2.073983 0.11151,-0.111512 0.19362,0.0063 0.18246,0.261741 -0.0514,1.177211 0.11461,2.078943 0.35543,1.930108 0.14552,-0.08994 0.26458,0.917411 0.26458,2.238549 0,1.323653 -0.14175,2.314464 -0.31573,2.206937 -0.17365,-0.107324 -0.23627,0.220531 -0.13916,0.728567 0.11068,0.578955 0.0416,0.840253 -0.18519,0.700115 -0.22824,-0.141064 -0.26765,0.02166 -0.10678,0.440895 0.14024,0.365464 0.14489,0.554386 0.0103,0.419825 -0.13456,-0.13456 -0.68202,0.44499 -1.21657,1.287888 -0.53455,0.842898 -1.30496,1.76582 -1.71202,2.050938 -0.40706,0.285118 -0.62206,0.648672 -0.47778,0.807897 0.14429,0.159225 0.0804,0.185516 -0.14191,0.05842 -0.4223,-0.241385 -2.357184,0.590324 -2.061411,0.886095 0.09322,0.09322 -0.186994,0.156966 -0.622702,0.141651 l -0.792198,-0.02784 v 6.526389 6.526389 h 21.574151 c 11.86579,0 21.41285,0.09964 21.2157,0.221415 -0.32622,0.201504 1.2124,0.577107 3.12577,0.763053 0.41804,0.04063 0.66981,0.219905 0.55949,0.398399 -0.11099,0.179584 0.0698,0.22078 0.40479,0.09224 0.40796,-0.156548 0.523,-0.09903 0.35278,0.176389 -0.17022,0.275419 -0.0552,0.332937 0.35278,0.176389 0.35958,-0.137983 0.51785,-0.09071 0.38983,0.116437 -0.19399,0.31387 0.27232,0.501092 0.97263,0.390514 0.14552,-0.02297 0.23057,0.07729 0.18899,0.222807 -0.0986,0.345179 2.64083,3.084636 2.98601,2.986014 0.14552,-0.04158 0.24579,0.04347 0.22281,0.188986 -0.11058,0.700317 0.0766,1.166619 0.39051,0.972637 0.20715,-0.128023 0.25442,0.03027 0.11644,0.38983 -0.15655,0.407956 -0.099,0.522993 0.17639,0.352778 0.27542,-0.170219 0.33294,-0.05518 0.17639,0.352777 -0.14834,0.386574 -0.095,0.52052 0.14753,0.370615 0.24581,-0.151921 0.30959,0.03383 0.18077,0.526457 -0.12756,0.487775 -0.0642,0.677855 0.17639,0.529167 0.24058,-0.148689 0.30394,0.04139 0.17639,0.529166 -0.11115,0.425023 -0.0548,0.672049 0.12758,0.559329 0.18678,-0.115436 0.27718,0.427401 0.21111,1.267753 -0.0865,1.100374 -0.023,1.336672 0.25269,0.940463 0.22571,-0.324351 0.37032,-0.366546 0.37363,-0.109015 0.003,0.231083 -0.15594,0.519867 -0.35313,0.641738 -0.19719,0.121871 -0.27762,0.352506 -0.17873,0.512515 0.0989,0.160013 0.19029,2.411233 0.2031,5.00271 0.0329,6.650993 -0.0902,6.378455 2.81615,6.238261 1.34928,-0.06508 2.3063,0.02226 2.19556,0.200357 -0.10797,0.173651 0.21936,0.236273 0.7274,0.139156 0.50803,-0.09712 0.85758,-0.0696 0.77677,0.06116 -0.15446,0.249918 2.26983,1.266493 2.72592,1.143056 0.14552,-0.03938 0.22926,0.04746 0.18608,0.192976 -0.11644,0.392455 2.12666,2.508557 2.38513,2.250091 0.12189,-0.121892 0.18959,-0.06287 0.15044,0.131159 -0.15044,0.74567 0.0271,1.267259 0.36112,1.060831 0.20714,-0.128023 0.25442,0.03023 0.11643,0.38983 -0.15654,0.407956 -0.099,0.522993 0.17639,0.352778 0.27542,-0.170219 0.33294,-0.05518 0.17639,0.352778 -0.14834,0.386574 -0.095,0.52052 0.14753,0.370614 0.24581,-0.15192 0.30959,0.03383 0.18077,0.526457 -0.10948,0.418666 -0.055,0.67183 0.1211,0.562593 0.19087,-0.118414 0.2209,3.171299 0.0744,8.146914 -0.26608,9.0349 -0.30796,9.60672 -0.68637,9.37285 -0.25868,-0.15988 -0.85046,1.23275 -0.72526,1.70671 0.0384,0.14552 -0.0492,0.22748 -0.19469,0.18212 -0.34495,-0.10752 -2.39484,1.94237 -2.28733,2.28733 0.0454,0.14552 -0.0366,0.23436 -0.18211,0.19743 -0.41429,-0.10516 -3.93321,1.25059 -3.79999,1.46403 0.0654,0.10484 -0.99549,0.13721 -2.35762,0.0719 -1.71856,-0.0824 -2.40409,-0.001 -2.23972,0.26459 0.13029,0.2108 0.0843,0.38328 -0.1022,0.38328 -0.37626,0 -1.15513,1.95761 -0.88596,2.22678 0.2858,0.2858 0.35188,4.81456 0.0768,5.25974 -0.14185,0.22951 -0.15979,0.57603 -0.0399,0.77005 0.11991,0.19401 0.24729,1.23347 0.28306,2.3099 0.045,1.35488 -0.0281,1.74002 -0.23755,1.25158 -0.21039,-0.49057 -0.27686,-0.15132 -0.21814,1.11336 0.0464,1.0004 -0.0346,1.74509 -0.18013,1.65487 -0.14552,-0.0902 -0.26458,0.0911 -0.26458,0.40299 0,0.31187 -0.31353,1.21596 -0.69672,2.00908 -0.3832,0.79313 -0.5968,1.60374 -0.47466,1.80135 0.12213,0.19762 0.0554,0.25632 -0.14826,0.13044 -0.38355,-0.23704 -0.97391,0.73387 -0.82364,1.35458 0.047,0.19403 -0.0351,0.23226 -0.1824,0.085 -0.36369,-0.36369 -1.94257,1.16064 -1.66589,1.60832 0.12102,0.1958 0.0665,0.26114 -0.12107,0.14519 -0.42249,-0.26111 -2.33235,0.94755 -2.0087,1.27121 0.1289,0.12889 -22.26192,0.23435 -49.757376,0.23435 -32.887167,0 -49.917908,-0.11945 -49.775971,-0.34911 z m 38.362315,-2.73015 c -5.869341,-0.0543 -15.473717,-0.0543 -21.343057,0 -5.869341,0.0543 -1.067153,0.0987 10.671528,0.0987 11.738682,0 16.54087,-0.0444 10.671529,-0.0987 z m 23.479959,0.001 c -2.2687,-0.0614 -6.0787,-0.0615 -8.466671,-3.5e-4 -2.387967,0.0611 -0.531759,0.11131 4.124911,0.11155 4.65666,2.3e-4 6.61046,-0.0498 4.34176,-0.11113 z m 21.85199,-7.1e-4 c -3.24997,-0.0582 -8.56809,-0.0582 -11.81806,0 -3.24996,0.0582 -0.5909,0.10585 5.90903,0.10585 6.49993,0 9.15899,-0.0476 5.90903,-0.10585 z m 9.34861,0.009 c -0.63059,-0.0783 -1.66246,-0.0783 -2.29306,0 -0.63059,0.0782 -0.11465,0.14228 1.14653,0.14228 1.26118,0 1.77712,-0.064 1.14653,-0.14228 z m 2.38124,-0.55937 c 10e-6,-0.15698 0.1541,-0.19018 0.34243,-0.0738 0.5228,0.32311 2.16362,-0.66614 3.53814,-2.13315 0.67909,-0.72478 0.99659,-1.18861 0.70555,-1.03072 -0.29104,0.15789 -0.0779,-0.1418 0.47359,-0.66596 0.57733,-0.54871 0.91877,-1.17184 0.80482,-1.46881 -0.10886,-0.28368 -0.0411,-0.51579 0.1505,-0.51579 0.19622,0 0.25597,-0.42378 0.13678,-0.97014 -0.16297,-0.74703 -0.12519,-0.84844 0.16426,-0.44097 0.26731,0.37628 0.37748,-7.75821 0.38132,-28.15485 0.004,-19.771084 -0.10861,-28.61355 -0.36152,-28.457245 -0.23792,0.147045 -0.28649,-0.09368 -0.13814,-0.684734 0.14815,-0.590226 0.0836,-0.911455 -0.18307,-0.911455 -0.22651,0 -0.31661,-0.154086 -0.20022,-0.342416 0.71692,-1.159994 -4.3092,-6.190672 -5.46894,-5.473912 -0.19002,0.11744 -0.34549,0.02688 -0.34549,-0.201217 0,-0.241156 -0.29551,-0.337467 -0.70604,-0.23011 -0.38833,0.101547 -0.61708,0.04069 -0.50835,-0.135245 0.11784,-0.190676 -17.83586,-0.319877 -44.449514,-0.319877 -26.455231,0 -44.647213,0.130284 -44.647213,0.31975 0,0.175864 -0.342324,0.23023 -0.760721,0.12082 -0.570618,-0.149222 -0.688393,-0.08191 -0.471295,0.269367 0.210417,0.340459 0.129173,0.406802 -0.297613,0.243028 -0.322871,-0.123895 -0.587038,-0.06213 -0.587038,0.137259 0,0.19939 -0.158342,0.264665 -0.351871,0.145059 -0.409304,-0.252963 -3.455494,2.571803 -3.604428,3.342428 -0.05535,0.286424 -0.304472,0.739712 -0.553593,1.007311 -0.25296,0.271724 -0.353092,0.801158 -0.226789,1.199106 0.150431,0.473964 0.09538,0.631733 -0.164414,0.471173 -0.284381,-0.175757 -0.390572,7.725304 -0.390572,29.05999 0,18.66612 0.124025,29.30137 0.341706,29.30137 0.187938,0 0.250329,0.23813 0.138645,0.52917 -0.111683,0.29104 -0.03231,0.52917 0.176389,0.52917 0.208697,0 0.287273,0.24021 0.174613,0.53379 -0.129803,0.33826 0.358856,1.07378 1.333988,2.0079 0.846354,0.81076 1.212593,1.24524 0.813865,0.96551 -0.398729,-0.27972 -0.249917,-0.0753 0.330692,0.45423 0.580609,0.52956 1.124178,0.89431 1.207931,0.81055 0.08375,-0.0838 0.391972,0.0874 0.684933,0.38038 0.292961,0.29296 0.758557,0.44597 1.034659,0.34002 0.276101,-0.10595 0.429537,-0.0754 0.340969,0.0679 -0.08857,0.14329 20.381934,0.26054 45.490009,0.26054 25.108072,0 45.651042,-0.12843 45.651042,-0.28541 z m -64.354027,-4.52229 c 0.126139,-0.20403 -1.84682,-0.80105 -2.375327,-0.71879 -0.350548,0.0546 -1.138555,-0.9969 -1.233883,-1.64641 -0.04645,-0.31645 -0.234988,-0.62554 -0.418987,-0.68688 -0.183995,-0.0613 -0.247008,-0.44622 -0.140028,-0.85532 0.10698,-0.40909 0.05044,-0.65507 -0.125645,-0.54662 -0.184436,0.1136 -0.320153,-1.49391 -0.320153,-3.7921 0,-2.29897 0.135653,-3.90528 0.320153,-3.79102 0.176085,0.10905 0.230579,-0.14428 0.121094,-0.56294 -0.12882,-0.49262 -0.06504,-0.67838 0.180771,-0.52646 0.242552,0.14991 0.295871,0.016 0.147528,-0.37061 -0.137982,-0.35958 -0.09071,-0.51786 0.116438,-0.38983 0.191805,0.11854 0.368582,0.0474 0.392835,-0.15807 0.02424,-0.20548 0.06394,-0.5569 0.0882,-0.78094 0.02424,-0.22404 0.357247,-0.4533 0.739987,-0.50948 0.382742,-0.0562 0.858992,-0.32337 1.058333,-0.59376 0.199344,-0.27039 0.560881,-0.42477 0.803416,-0.34307 0.242535,0.0817 0.44099,0.0163 0.441011,-0.14542 2.1e-5,-0.16169 8.6387,-0.29398 19.197061,-0.29398 10.558363,0 19.128203,0.0688 19.044093,0.15286 -0.18819,0.18811 2.03906,1.21683 2.44268,1.12822 0.15994,-0.0351 0.18957,0.1 0.0658,0.30017 -0.12372,0.2002 0.0223,0.45889 0.32453,0.57487 0.30223,0.11597 0.46167,0.35298 0.35432,0.52667 -0.10735,0.1737 -0.032,0.31582 0.16734,0.31582 0.19939,0 0.27115,0.23812 0.15947,0.52916 -0.11169,0.29104 -0.067,0.52917 0.0993,0.52917 0.16628,0 0.30233,1.96922 0.30233,4.37604 0,2.40681 -0.10213,4.31291 -0.22695,4.23577 -0.21525,-0.13304 -0.81993,1.54551 -0.72687,2.01771 0.0517,0.26232 -1.04517,1.2996 -1.42573,1.34827 -1.2329,0.15766 -2.3469,0.49515 -2.23458,0.67697 0.0753,0.12189 -8.32588,0.22163 -18.669302,0.22163 -10.343428,0 -18.744574,-0.0997 -18.66921,-0.22163 z m -2.320967,-1.14629 c 0,-0.0733 -0.277813,-0.35107 -0.617362,-0.61736 -0.559526,-0.43881 -0.572004,-0.42633 -0.133194,0.1332 0.460858,0.58763 0.750556,0.77451 0.750556,0.48416 z m 42.731114,-0.48416 c 0.43881,-0.55953 0.42633,-0.57201 -0.13319,-0.1332 -0.58764,0.46086 -0.77452,0.75056 -0.48417,0.75056 0.0733,0 0.35107,-0.27782 0.61736,-0.61736 z m -3.53607,-3.65268 c 0.64917,-0.64917 0.7258,-1.06807 0.61108,-3.34003 -0.0744,-1.47275 -0.32695,-2.79367 -0.58322,-3.05011 -0.35199,-0.35221 -4.17648,-0.47581 -17.279832,-0.55845 -9.255288,-0.0584 -17.333138,-0.0135 -17.950781,0.0998 -0.900914,0.16517 -1.205396,0.45558 -1.539713,1.46857 -0.589023,1.78476 -0.266658,5.04271 0.558673,5.64621 0.52602,0.38463 3.999096,0.4763 18.046454,0.4763 17.211439,0 17.402909,-0.008 18.137339,-0.74226 z m 5.37589,-2.96191 c 0.001,-1.55222 0.0633,-2.14334 0.13783,-1.31359 0.0745,0.82975 0.0735,2.09975 -0.002,2.82222 -0.0758,0.72248 -0.13677,0.0436 -0.13549,-1.50863 z M 70.147874,106.96307 c 0.396155,-0.2811 0.15228,-0.33251 -0.97022,-0.20455 -1.005731,0.11466 -1.423123,0.0475 -1.267749,-0.20386 0.148202,-0.23979 -0.04254,-0.30309 -0.529576,-0.17573 -0.492616,0.12882 -0.678378,0.065 -0.526458,-0.18077 0.149906,-0.24255 0.01595,-0.29587 -0.370614,-0.14752 -0.359579,0.13798 -0.517853,0.0907 -0.38983,-0.11644 0.11854,-0.19181 0.04741,-0.34874 -0.158066,-0.34874 -0.205479,0 -0.454219,0.001 -0.552753,0.002 -0.09853,0.001 -0.614472,-0.44401 -1.146528,-0.9897 -0.532056,-0.5457 -0.729248,-0.66587 -0.438206,-0.26705 0.523712,0.71764 0.521127,0.71831 -0.250582,0.0657 -0.428861,-0.36266 -0.758345,-0.75953 -0.732187,-0.88195 0.101068,-0.47296 -0.899901,-2.13109 -1.181442,-1.95708 -0.163435,0.10101 -0.202611,-0.0627 -0.08706,-0.36384 0.115552,-0.30112 0.04922,-0.54749 -0.147401,-0.54749 -0.196621,0 -0.267974,-0.34232 -0.158563,-0.760719 0.109414,-0.418398 0.05486,-0.671682 -0.121222,-0.562853 -0.180675,0.111665 -0.320153,-0.940135 -0.320153,-2.414281 0,-1.43668 0.136045,-2.612146 0.302327,-2.612146 0.166279,0 0.210951,-0.238125 0.09927,-0.529167 -0.111682,-0.291041 -0.03231,-0.529166 0.176389,-0.529166 0.2087,0 0.28491,-0.24637 0.169358,-0.54749 -0.115549,-0.301117 -0.06459,-0.457564 0.113249,-0.347656 0.273678,0.169143 0.828477,-0.853521 0.885959,-1.633096 0.0095,-0.12935 0.161858,-0.367475 0.338487,-0.529167 0.190697,-0.174568 0.203083,-0.07904 0.03048,0.235187 -0.159858,0.291041 0.167953,0.05292 0.728472,-0.529167 0.560518,-0.582083 0.983361,-1.177396 0.939648,-1.322917 -0.04371,-0.145521 0.03958,-0.226836 0.185106,-0.180703 0.407483,0.129184 2.557639,-0.839269 2.557639,-1.151985 0,-0.152323 0.342325,-0.187431 0.76072,-0.07802 0.418398,0.109414 0.671681,0.05486 0.562853,-0.121221 -0.110483,-0.178763 0.785058,-0.320153 2.027816,-0.320153 1.224125,0 2.137873,0.142078 2.030547,0.315733 -0.107322,0.173651 0.220532,0.236272 0.728567,0.139156 0.556479,-0.10638 0.838299,-0.0384 0.708883,0.171006 -0.118149,0.19117 0.0043,0.274542 0.272111,0.185272 0.267808,-0.08927 0.69958,0.05035 0.959489,0.310254 0.259909,0.259912 0.578827,0.428113 0.708706,0.373785 0.253583,-0.106077 3.524652,3.1516 3.569222,3.55461 0.0771,0.697149 0.454314,1.476573 0.714612,1.476573 0.162785,0 0.206456,0.342325 0.09704,0.760719 -0.109414,0.418398 -0.05486,0.671512 0.121222,0.562479 0.179913,-0.111403 0.320153,0.868504 0.320153,2.237021 0,1.339395 -0.137577,2.435655 -0.305728,2.436131 -0.168152,3.53e-4 -0.222645,0.31859 -0.121095,0.706914 0.117458,0.449157 0.04644,0.620627 -0.195195,0.471297 -0.240249,-0.14849 -0.297046,-0.019 -0.154559,0.35229 0.128584,0.33509 0.05338,0.58704 -0.175236,0.58704 -0.220278,0 -0.297137,0.10336 -0.1708,0.2297 0.126336,0.12633 -0.04564,0.45561 -0.382175,0.73171 -0.382059,0.31347 -0.413124,0.40592 -0.08271,0.24618 0.291042,-0.14071 -0.105833,0.31715 -0.881944,1.01748 -0.776111,0.70034 -1.539544,1.27994 -1.696516,1.28802 -0.156972,0.008 -0.184859,0.17737 -0.06197,0.3762 0.122887,0.19884 0.09257,0.32614 -0.06737,0.28289 -0.491543,-0.13292 -1.878294,0.44252 -1.878294,0.7794 0,0.17487 -0.238125,0.22656 -0.529167,0.11488 -0.291042,-0.11169 -0.529167,-0.0592 -0.529167,0.11662 0,0.17583 -0.595312,0.26195 -1.322917,0.19137 -0.999952,-0.097 -1.193729,-0.0379 -0.79375,0.24183 0.41263,0.28862 0.257246,0.37013 -0.705555,0.37013 -0.969176,0 -1.120916,-0.0807 -0.705556,-0.37547 z m 49.741666,0.0118 c 0.69641,-0.24014 0.52943,-0.28786 -0.79375,-0.22687 -0.92163,0.0425 -1.67569,-0.0111 -1.67569,-0.11903 0,-0.17477 -2.02948,-1.01455 -2.72673,-1.12829 -0.14953,-0.0244 -0.5624,-0.41369 -0.91749,-0.86511 -0.35509,-0.45142 -0.81618,-0.71534 -1.02465,-0.5865 -0.20847,0.12884 -0.2781,0.0709 -0.15475,-0.12864 0.12336,-0.1996 -0.15295,-0.76996 -0.61402,-1.26746 -0.46107,-0.49751 -0.74914,-0.99373 -0.64015,-1.10272 0.10899,-0.10899 0.0179,-0.19816 -0.20234,-0.19816 -0.22862,0 -0.30382,-0.25195 -0.17524,-0.58704 0.14249,-0.37131 0.0857,-0.50077 -0.15456,-0.35229 -0.24163,0.14934 -0.31265,-0.0221 -0.19519,-0.471294 0.10155,-0.388324 0.047,-0.706434 -0.1211,-0.706914 -0.16815,-3.52e-4 -0.30572,-1.096736 -0.30572,-2.436131 0,-1.368517 0.14023,-2.348424 0.32015,-2.23702 0.17608,0.109033 0.23058,-0.144301 0.12109,-0.562967 -0.10948,-0.418662 -0.0721,-0.682709 0.0832,-0.586768 0.27745,0.171471 0.88974,-1.482799 0.75942,-2.051769 -0.0366,-0.159943 0.0961,-0.190261 0.2949,-0.06737 0.31421,0.19419 0.50287,-0.219202 0.41891,-0.91791 -0.0331,-0.275756 1.71231,-1.929335 1.91131,-1.810717 0.42334,0.252328 0.86212,0.03475 0.64345,-0.319091 -0.14921,-0.24143 -0.0974,-0.311936 0.12713,-0.173147 0.20836,0.128778 0.5915,0.02148 0.8514,-0.238424 0.25991,-0.259909 0.69169,-0.399521 0.95949,-0.310254 0.27313,0.09104 0.38771,0.0018 0.26095,-0.203334 -0.13898,-0.224871 0.0459,-0.294559 0.48006,-0.181011 0.38833,0.101551 0.70646,0.04706 0.70697,-0.121094 3.6e-4,-0.168152 1.01738,-0.305728 2.2597,-0.305728 1.2628,0 2.17137,0.141168 2.06057,0.320153 -0.109,0.176085 0.14435,0.230579 0.56302,0.121094 0.41866,-0.109481 0.68271,-0.07205 0.58677,0.08319 -0.14774,0.239035 0.76902,0.625013 1.66596,0.701414 0.14177,0.01206 0.91866,0.693702 1.7264,1.514722 0.80775,0.821019 1.34099,1.254636 1.18498,0.963595 -0.16804,-0.313468 -0.15276,-0.409335 0.0375,-0.235187 0.17663,0.161692 0.34098,0.439505 0.36524,0.617361 0.0243,0.17786 0.0639,0.491501 0.0882,0.69698 0.0243,0.205479 0.18493,0.286561 0.35705,0.180185 0.17212,-0.106377 0.30586,0.0032 0.2972,0.243762 -0.0398,1.105263 0.12229,1.696925 0.41528,1.515844 0.17594,-0.108733 0.2303,0.144847 0.12082,0.563509 -0.10948,0.418666 -0.055,0.672 0.1211,0.562967 0.17974,-0.111302 0.32015,0.854858 0.32015,2.203012 0,1.347004 -0.14056,2.314907 -0.32015,2.204579 -0.17609,-0.108172 -0.23064,0.145648 -0.12122,0.564046 0.10941,0.418394 0.038,0.760717 -0.15857,0.760717 -0.19662,0 -0.27116,0.22498 -0.16563,0.49997 0.10552,0.27498 -0.0527,0.59382 -0.35164,0.70853 -0.31519,0.12095 -0.45572,0.43729 -0.33454,0.75307 0.11492,0.29949 0.0917,0.49173 -0.0516,0.42721 -0.36353,-0.16368 -2.86056,2.47832 -2.59414,2.74475 0.11931,0.11931 0.0582,0.17225 -0.13584,0.11764 -0.53603,-0.15087 -1.94028,0.39827 -1.94028,0.75875 0,0.17486 -0.23813,0.22656 -0.52917,0.11487 -0.29104,-0.11168 -0.52917,-0.0548 -0.52917,0.12637 0,0.18118 -0.49879,0.25621 -1.10844,0.16673 -0.76785,-0.1127 -1.03245,-0.0397 -0.86112,0.23749 0.16672,0.26976 -0.13312,0.38871 -0.92003,0.36501 -1.11218,-0.0335 -1.12567,-0.0495 -0.28541,-0.33928 z m -6.52638,-17.26446 c 0.35118,-0.388056 0.55914,-0.705556 0.46213,-0.705556 -0.097,0 -0.46373,0.3175 -0.81491,0.705556 -0.35119,0.388056 -0.55915,0.705556 -0.46213,0.705556 0.097,0 0.46372,-0.3175 0.81491,-0.705556 z M 77.882284,89.445877 77.027041,88.475738 77.99718,89.33098 c 0.906742,0.799356 1.13192,1.085036 0.855243,1.085036 -0.06319,0 -0.499752,-0.436563 -0.970139,-0.970139 z M 39.103427,100.82296 V 89.357682 h -2.237569 c -3.164641,0 -5.018924,1.029815 -6.312337,3.50569 -0.952963,1.824183 -0.975095,2.002004 -0.975095,7.834818 0,6.35762 0.261948,7.67889 1.868921,9.42691 1.216373,1.32313 3.366803,2.14675 5.627608,2.15539 l 2.028472,0.008 z m 117.996223,11.0718 c 1.87601,-0.52083 3.89016,-2.58636 4.41208,-4.52463 0.2674,-0.99304 0.37355,-3.70694 0.29849,-7.630826 l -0.11651,-6.089678 -1.05833,-1.492112 c -1.4493,-2.043328 -2.99675,-2.799832 -5.72713,-2.799832 h -2.21037 v 11.465278 11.46528 l 1.49931,-0.002 c 0.82461,-0.001 2.13072,-0.17726 2.90246,-0.39151 z M 93.693877,50.9931 c -0.06467,-1.697743 -0.117581,-0.30868 -0.117581,3.086806 0,3.395486 0.05291,4.784548 0.117581,3.086805 0.06467,-1.697743 0.06467,-4.475868 0,-6.173611 z m 4.654727,-8.191116 c 3.514096,-1.792759 4.171466,-6.92902 1.218635,-9.52164 -2.72222,-2.390142 -6.914049,-1.933516 -8.809733,0.959665 -3.353795,5.118537 2.15706,11.334214 7.591098,8.561975 z m 56.208076,73.827896 c 0.34324,-0.0894 0.81949,-0.0836 1.05833,0.0131 0.23884,0.0966 -0.042,0.16982 -0.62407,0.16263 -0.58209,-0.007 -0.7775,-0.0862 -0.43426,-0.1757 z m 11.68956,-15.80692 c 3.5e-4,-3.104445 0.0544,-4.327218 0.11993,-2.717278 0.0655,1.609943 0.0651,4.149948 -7.1e-4,5.644448 -0.066,1.4945 -0.11956,0.17727 -0.11912,-2.92717 z M 25.134304,100.64657 c 0,-3.00743 0.0541,-4.237742 0.120234,-2.734027 0.06613,1.503715 0.06613,3.964337 0,5.468057 -0.06613,1.50371 -0.120234,0.2734 -0.120234,-2.73403 z"
       id="path386" /></g></svg>
