<?xml version="1.0" encoding="utf-8"?>
<!DOCTYPE svg PUBLIC "-//W3C//DTD SVG 1.0//EN" "http://www.w3.org/TR/2001/REC-SVG-20010904/DTD/svg10.dtd">
<svg version="1.0" xmlns="http://www.w3.org/2000/svg" width="401px" height="322px" viewBox="0 0 401 322" preserveAspectRatio="xMidYMid meet">
 <g fill="#0d3553">
  <path d="M55.4 319.1 c-5.1 -3.6 -8.8 -8.1 -12.2 -14.5 -2.7 -5 -2.7 -5.4 -3 -27.2 l-0.3 -22.2 -8.7 -0.4 c-13.7 -0.7 -22.8 -6.5 -28.1 -17.8 -2.5 -5.4 -2.6 -5.9 -2.6 -27 0 -25.1 0.7 -28.2 8.7 -36.6 6.2 -6.6 12.7 -9.4 23 -10.2 l7.8 -0.5 0 -19.3 c0 -17.2 0.2 -19.9 2.1 -25 2.7 -7.3 9 -14.8 15.9 -19 10 -6.1 12.8 -6.4 77.3 -6.4 l57.7 0 -0.2 -17.1 -0.3 -17.1 -3.9 -1.3 c-6.1 -2.1 -10.8 -6.6 -14.5 -13.8 -2.9 -5.7 -3.4 -7.5 -3.3 -13.7 0 -5.6 0.6 -8.2 2.7 -12.5 9.1 -18.7 34.2 -22.4 48.2 -7.2 5.9 6.3 7.6 10.8 7.7 19.7 0.1 6.3 -0.3 8.4 -2.7 13.2 -3.1 6.4 -8.1 11.2 -14.4 14 l-4.3 1.9 0 16.9 0 16.9 60.8 0.3 c67.8 0.4 65.7 0.2 76.2 7.5 7.1 5 12.6 12.3 15 20.2 1.7 5.3 2 9.2 2 24.1 l0 17.7 7.7 0.6 c14.7 1.1 26.1 9.7 29.9 22.5 1.2 4.1 1.5 9.4 1.2 25.5 -0.3 19 -0.4 20.5 -2.7 24.7 -4 7.6 -7.7 11.5 -14.3 15 -5.1 2.7 -7.7 3.4 -13.9 3.8 l-7.7 0.4 -0.4 21.2 -0.3 21.2 -3.3 6.6 c-2.2 4.5 -5.2 8.4 -9.3 12.2 l-6 5.6 -141.8 0 -141.8 0 -3.9 -2.9z m275.3 -12.6 c5.1 -2.6 8.5 -6.2 11.7 -12.2 1.4 -2.9 1.6 -10.9 1.6 -84 l0 -80.8 -3.1 -5.3 c-3.5 -6.2 -9.6 -10.5 -17 -12.1 -3.4 -0.8 -44.1 -1.1 -124.8 -1.1 -135.3 0 -126.6 -0.5 -134.8 7.6 -7.5 7.6 -7.3 4.7 -7.3 91.9 0 87.7 -0.4 83.2 8.1 91.7 2.6 2.6 6.2 5.1 8 5.7 2.1 0.5 51.2 1 128 1 l124.5 0.1 5.1 -2.5z m-293.7 -97.1 l0 -29.7 -4.5 0.5 c-6.1 0.7 -11 4.3 -14 10.2 -2.3 4.6 -2.5 6.1 -2.5 18 0 14.7 0.9 19.1 4.7 23.7 3.1 3.6 9.4 6.8 13.6 6.9 l2.7 0 0 -29.6z m335.3 28 c5.6 -1.9 10.2 -6.8 11.7 -12.6 0.7 -2.5 1 -9.8 0.8 -18.2 -0.3 -13.5 -0.4 -14.3 -3.1 -18.4 -3 -4.6 -9 -8.1 -13.9 -8.2 l-2.8 0 0 29.5 c0 23.8 0.3 29.5 1.3 29.5 0.7 0 3.4 -0.7 6 -1.6z m-167 -195.7 c7.4 -4.5 9.6 -11.1 5.7 -17.5 -2.2 -3.5 -7.4 -7.2 -10.3 -7.2 -3.2 0 -8.6 3.1 -10.8 6.1 -4.6 6.5 -2.7 13.4 5 18.6 4.2 2.9 5.7 2.9 10.4 0z"/>
  <path d="M140 301.2 c-7.6 -4.1 -10.6 -13.3 -9.7 -29.5 0.7 -12.5 3.1 -18.1 9.7 -21.7 l4.5 -2.5 56.5 0 56.5 0 4.2 2.3 c2.8 1.5 5 3.7 6.5 6.5 2.1 3.8 2.3 5.5 2.3 19.2 0 16.9 -0.7 19.3 -7.2 24.2 l-3.6 2.8 -58.1 0.3 c-55.1 0.2 -58.3 0.1 -61.6 -1.6z m108.3 -19.5 c2.2 -1.6 3.2 -7.4 1.8 -10.9 l-1.1 -2.8 -48.4 0 -48.4 0 -1.2 3.4 c-1.3 3.9 -0.5 8.5 1.8 10.4 2.3 1.8 93 1.8 95.5 -0.1z"/>
  <path d="M117.3 229.2 c-13.9 -5 -21.3 -17.4 -20 -33.8 0.9 -11.9 6.1 -20.6 15.6 -26.2 4.1 -2.4 5.8 -2.7 15.3 -3.1 10.2 -0.3 11 -0.2 17.2 2.7 4.7 2.2 7.5 4.4 10.5 8.2 5 6.4 6.5 11.1 6.5 22 0 7.1 -0.4 9.4 -2.5 14.1 -3.1 6.6 -8.3 11.9 -14.7 15 -6.7 3.1 -20.7 3.7 -27.9 1.1z"/>
  <path d="M257.4 229.2 c-7.8 -2.8 -12.9 -7.3 -16.6 -15 -3 -6.1 -3.3 -7.4 -3.2 -15.7 0.1 -15 5.4 -24.2 16.8 -29.6 5.3 -2.5 7.3 -2.9 15.2 -2.9 12.1 0 17.4 1.9 24 8.5 6.6 6.6 8.9 12.8 8.8 24.5 -0.1 13.4 -5.5 23.2 -15.7 28.4 -7.4 3.7 -21.6 4.6 -29.3 1.8z"/>
 </g>
 <g fill="#f18728">
  <path d="M149.6 284.7 c-2.3 -1.7 -3.3 -11.2 -1.6 -16.1 l1.2 -3.6 51.4 0 51.4 0 1.1 2.8 c1.7 4.3 0.7 15.2 -1.6 16.8 -2.7 2 -99.2 2.1 -101.9 0.1z"/>
  <path d="M24.5 240.1 c-5 -2.2 -9.1 -6.9 -10.5 -11.9 -0.5 -2 -1 -10.9 -1 -19.8 0 -15.1 0.1 -16.3 2.5 -21 3.6 -7.1 8 -9.8 17.2 -10.2 l7.3 -0.4 0 32.6 0 32.6 -5.7 0 c-3.5 0 -7.5 -0.8 -9.8 -1.9z"/>
  <path d="M362 209.5 l0 -32.5 5.8 0 c7.8 0.1 13.3 2.7 16.9 8.2 2.7 4.2 2.8 4.6 3.1 21.4 0.2 10.6 -0.1 18.7 -0.8 21.3 -2.3 8.5 -10.5 14.1 -20.7 14.1 l-4.3 0 0 -32.5z"/>
  <path d="M192 44.8 c-6.8 -4.7 -9.6 -11.5 -7.7 -18.9 2 -8.2 11.1 -13.7 19.4 -11.9 5.1 1.2 8.4 3.9 11.1 9.1 4.1 7.8 1.2 17.3 -6.6 21.7 -5.3 2.9 -11.8 2.9 -16.2 0z"/>
 </g>
 <g fill="#53a6ac">
  <path d="M70.1 310.9 c-1.8 -0.6 -5.4 -3.1 -8 -5.7 -8.5 -8.5 -8.1 -3.6 -8.1 -94.7 0 -90.6 -0.3 -87.3 7.3 -94.9 8.2 -8.1 -0.9 -7.6 137.8 -7.6 84.6 0 124.4 0.3 127.9 1.1 7.1 1.5 13.7 6.3 17.2 12.5 l2.8 5.1 0 83.7 c0 76 -0.1 84 -1.6 86.9 -3.2 6 -6.6 9.6 -11.7 12.2 l-5.1 2.5 -127.5 -0.1 c-78.7 0 -128.9 -0.5 -131 -1z m190.2 -14.2 c6.2 -4.7 7.2 -7.6 7.2 -21.2 0 -14.5 -1.8 -19 -8.8 -22.7 l-4.2 -2.3 -53.5 0 -53.5 0 -4.5 2.5 c-5.7 3.2 -8.7 8.9 -9.6 18.5 -1.2 12.9 2.4 22.8 9.6 26.7 3.3 1.7 6.4 1.8 58.6 1.6 l55.1 -0.3 3.6 -2.8z m-118 -71.7 c17.3 -8.1 22.4 -30 10.6 -45 -7.3 -9.3 -20.2 -13.3 -32.1 -10 -8.8 2.5 -17.7 12.7 -19.9 22.8 -2.1 10.1 2.5 22.6 10.6 28.8 8.6 6.6 21.1 7.9 30.8 3.4z m141.5 -0.7 c17.3 -8.7 20.8 -32.9 6.8 -46.8 -9 -9 -21.6 -11.1 -33.2 -5.6 -23.6 11.2 -21.7 45.5 3 54.3 6.9 2.5 16.2 1.7 23.4 -1.9z"/>
  <path d="M30.8 163.3 c1.7 -0.2 4.7 -0.2 6.5 0 1.7 0.2 0.3 0.4 -3.3 0.4 -3.6 0 -5 -0.2 -3.2 -0.4z"/>
  <path d="M364.8 163.3 c1.8 -0.2 4.5 -0.2 6 0 1.5 0.2 0 0.4 -3.3 0.4 -3.3 0 -4.5 -0.2 -2.7 -0.4z"/>
  <path d="M350.4 105.8 l-2.9 -3.3 3.3 2.9 c3 2.8 3.7 3.6 2.9 3.6 -0.2 0 -1.6 -1.5 -3.3 -3.2z"/>
  <path d="M48 107.7 c0 -0.2 1.5 -1.6 3.3 -3.3 l3.2 -2.9 -2.9 3.3 c-2.8 3 -3.6 3.7 -3.6 2.9z"/>
  <path d="M104.7 93.3 c16.1 -0.2 42.5 -0.2 58.5 0 16.1 0.1 3 0.2 -29.2 0.2 -32.2 0 -45.3 -0.1 -29.3 -0.2z"/>
  <path d="M207.2 76.8 l0.2 -17.3 0.3 16.7 0.3 16.8 58.8 0.3 58.7 0.2 -59.2 0.3 -59.3 0.2 0.2 -17.2z"/>
  <path d="M229.3 30.5 c0 -2.7 0.2 -3.8 0.4 -2.2 0.2 1.5 0.2 3.7 0 5 -0.2 1.2 -0.4 0 -0.4 -2.8z"/>
 </g>
</svg>