<svg xmlns="http://www.w3.org/2000/svg" style="background:transparent;background-color:transparent" width="601" height="61" viewBox="-0.5 -0.5 601 61" xmlns:v="https://vecta.io/nano"><style><![CDATA[.B{fill:#e1d5e7}.C{stroke:#9673a6}.D{pointer-events:all}.E{fill:light-dark(#000000, #ffffff)}.F{font-family:Helvetica}.G{text-anchor:middle}]]></style><rect width="120" height="60" rx="9" class="B C D"/><text x="60" y="34" font-size="12" class="E F G">Hugo (write blog)</text><rect x="240" width="120" height="60" rx="9" class="B C D"/><text x="300" y="34" font-size="12" class="E F G">GitHub (store code)</text><rect x="480" width="120" height="60" rx="9" class="B C D"/><text x="540" y="34" font-size="12" class="E F G">Netlify (host site)</text><path d="M140 30v-6q0-6 10-6h28q10 0 10-9V4.5q0-4.5 7.3 2.34l17.4 16.32q7.3 6.84 0 13.68l-17.4 16.32Q188 60 188 51v-4.5q0-4.5-10-4.5h-28q-10 0-10-6zm240 0v-6q0-6 10-6h28q10 0 10-9V4.5q0-4.5 7.3 2.34l17.4 16.32q7.3 6.84 0 13.68l-17.4 16.32Q428 60 428 51v-4.5q0-4.5-10-4.5h-28q-10 0-10-6z" stroke-miterlimit="10" class="B C D"/></svg>